<?xml version="1.0" encoding="iso-8859-1"?>
<!-- Generator: Adobe Illustrator 19.0.0, SVG Export Plug-In . SVG Version: 6.00 Build 0)  -->
<svg version="1.1" id="Layer_1" xmlns="http://www.w3.org/2000/svg" xmlns:xlink="http://www.w3.org/1999/xlink" x="0px" y="0px"
	 viewBox="0 0 512 512" style="enable-background:new 0 0 512 512;" xml:space="preserve">
<circle style="fill:#E05B49;" cx="256" cy="256" r="256"/>
<path style="opacity:0.1;enable-background:new    ;" d="M510.676,282.196L337.814,109.333l-87.627,51.306l-4.106,2.4l-2.241,1.333
	l-14.773,8.64l-102.186,59.84l-0.427,0.053l0.053,0.16l-6.24,3.627l10.293,17.6l5.067,26.294
	c-15.679,3.68-26.293,10.72-26.293,18.827v17.6c0,0.641,0.107,1.226,0.214,1.868c-0.107,0.64-0.214,1.28-0.214,1.919v17.6
	c0,0.641,0.107,1.226,0.214,1.868c-0.107,0.64-0.214,1.226-0.214,1.866v17.654c0,0.587,0.107,1.226,0.214,1.868
	c-0.107,0.64-0.214,1.226-0.214,1.866v17.6c0,1.973,0.64,3.893,1.814,5.707c1.173,1.814,2.879,3.52,5.067,5.067l119.255,119.213
	C242.249,511.646,249.081,512,256,512C388.542,512,497.556,411.275,510.676,282.196z"/>
<rect x="135.411" y="164.214" transform="matrix(0.863 -0.5053 0.5053 0.863 -79.5618 163.4113)" style="fill:#31978C;" width="252.116" height="128.329"/>
<path style="fill:#44C4A1;" d="M321.086,133.545l-171.49,100.411c3.73,6.37,1.44,14.645-5.113,18.481l38.764,66.203
	c6.553-3.836,14.89-1.784,18.62,4.585l171.49-100.411c-3.73-6.37-1.441-14.644,5.112-18.481l-38.764-66.203
	C333.152,141.968,324.817,139.915,321.086,133.545z"/>
<g>
	
		<ellipse transform="matrix(-0.863 0.5053 -0.5053 -0.863 602.5282 293.3085)" style="fill:#31978C;" cx="261.488" cy="228.364" rx="34.575" ry="43.773"/>
	<ellipse style="fill:#31978C;" cx="345.99" cy="178.906" rx="7.824" ry="7.824"/>
</g>
<ellipse style="fill:#3EA69B;" cx="176.958" cy="277.865" rx="7.824" ry="7.824"/>
<path style="fill:#44C4A1;" d="M277.675,259.748l-3.136-5.357c-7.107,3.243-14.689,4.101-22.736,2.574l1.619-9.521
	c6.2,1.166,11.673,0.816,16.435-1.05l-8.336-14.238c-6.303,1.919-11.37,2.551-15.199,1.902c-3.829-0.649-6.982-3.09-9.459-7.321
	s-3.029-8.556-1.644-12.984c1.386-4.425,4.38-8.147,8.985-11.172l-2.149-3.67l4.694-2.749l2.191,3.742
	c5.611-2.756,11.774-3.902,18.49-3.431l-0.819,9.546c-4.577-0.407-8.901,0.22-12.986,1.885l8.078,13.796l0.221-0.129
	c6.4-1.971,11.579-2.605,15.535-1.902c3.964,0.702,7.197,3.197,9.702,7.475c2.507,4.282,3.032,8.658,1.572,13.122
	c-1.457,4.47-4.605,8.282-9.455,11.451l3.093,5.282L277.675,259.748z M244.761,215.411c-0.605,1.83-0.423,3.564,0.536,5.203
	c0.959,1.64,2.208,2.649,3.746,3.028c1.533,0.385,3.933,0.211,7.191-0.512l-7.434-12.697
	C246.71,211.92,245.365,213.579,244.761,215.411z M279.053,238.544c0.71-1.924,0.567-3.744-0.438-5.458
	c-1.002-1.711-2.334-2.755-3.997-3.129c-1.669-0.371-4.226-0.136-7.674,0.7l7.733,13.207
	C276.883,242.248,278.339,240.474,279.053,238.544z"/>
<rect x="236.988" y="164.206" transform="matrix(0.863 -0.5053 0.5053 0.863 -79.5587 163.4077)" style="fill:#F6C358;" width="48.951" height="128.329"/>
<g>
	
		<rect x="243.205" y="173.81" transform="matrix(0.863 -0.5053 0.5053 0.863 -86.6567 156.4439)" style="fill:#FFFFFF;" width="3.744" height="128.329"/>
	
		<rect x="275.973" y="154.615" transform="matrix(0.863 -0.5053 0.5053 0.863 -72.4675 170.3705)" style="fill:#FFFFFF;" width="3.744" height="128.329"/>
</g>
<rect x="136.292" y="207.994" transform="matrix(0.982 -0.1888 0.1888 0.982 -46.6654 54.4257)" style="fill:#3EA69B;" width="252.1" height="128.321"/>
<path style="fill:#44C4A1;" d="M154.934,332.481l-14.718-76.575c8.678-1.668,14.36-10.055,12.693-18.732l198.134-38.082
	c1.668,8.678,10.054,14.36,18.732,12.693l14.718,76.574c-8.678,1.668-14.36,10.055-12.693,18.732l-198.134,38.082
	C171.999,336.497,163.613,330.814,154.934,332.481z"/>
<g>
	
		<ellipse transform="matrix(-0.982 0.1888 -0.1888 -0.982 571.2872 489.7739)" style="fill:#3EA69B;" cx="262.316" cy="272.097" rx="34.572" ry="43.77"/>
	<ellipse style="fill:#3EA69B;" cx="358.51" cy="253.646" rx="7.824" ry="7.824"/>
	<ellipse style="fill:#3EA69B;" cx="166.167" cy="290.615" rx="7.824" ry="7.824"/>
</g>
<path style="fill:#44C4A1;" d="M267.174,307.101l-1.172-6.096c-7.781,0.689-15.216-1.029-22.294-5.151l4.7-8.436
	c5.457,3.166,10.733,4.66,15.845,4.489l-3.115-16.202c-6.582-0.293-11.57-1.384-14.964-3.273c-3.394-1.889-5.553-5.24-6.478-10.055
	c-0.925-4.816-0.004-9.076,2.778-12.79c2.782-3.709,6.846-6.221,12.195-7.537l-0.803-4.176l5.342-1.027l0.819,4.258
	c6.209-0.728,12.401,0.245,18.576,2.927l-3.953,8.727c-4.18-1.909-8.466-2.759-12.873-2.551l3.018,15.699l0.251-0.048
	c6.692,0.275,11.785,1.403,15.281,3.384c3.503,1.983,5.72,5.413,6.655,10.282c0.936,4.873-0.027,9.174-2.892,12.896
	c-2.864,3.729-7.103,6.274-12.731,7.645l1.155,6.011L267.174,307.101z M250.921,254.329c-1.18,1.524-1.587,3.219-1.228,5.084
	c0.358,1.866,1.199,3.233,2.522,4.103c1.317,0.874,3.637,1.51,6.95,1.912l-2.777-14.449
	C253.922,251.688,252.1,252.802,250.921,254.329z M275.541,287.568c1.31-1.577,1.782-3.342,1.407-5.292
	c-0.374-1.947-1.283-3.376-2.726-4.282c-1.45-0.905-3.939-1.536-7.469-1.898l2.889,15.03
	C272.26,290.338,274.224,289.149,275.541,287.568z"/>
<path style="fill:#F6C358;" d="M211.711,381.145c0,11.886-22.918,21.522-51.189,21.522s-51.189-9.635-51.189-21.522v-17.606h102.378
	v17.606H211.711z"/>
<ellipse style="fill:#FCD462;" cx="160.531" cy="363.521" rx="51.188" ry="21.547"/>
<g>
	<path style="fill:#DC8744;" d="M160.522,346.22c-24.673,0-44.675,7.753-44.675,17.319c0,9.565,20.002,17.319,44.675,17.319
		s44.675-7.754,44.675-17.319C205.197,353.974,185.196,346.22,160.522,346.22z M160.522,378.932
		c-21.931,0-39.711-6.892-39.711-15.394s17.779-15.394,39.711-15.394s39.71,6.892,39.71,15.394
		C200.233,372.041,182.453,378.932,160.522,378.932z"/>
	<path style="fill:#DC8744;" d="M158.886,375.502v-2.107c-6.804-0.269-12.912-1.318-18.318-3.145l5.435-2.511
		c4.169,1.404,8.458,2.241,12.882,2.511v-5.6c-5.611-0.519-9.719-1.203-12.325-2.049c-2.605-0.847-3.908-2.102-3.908-3.767
		s1.497-3.025,4.502-4.084c3.005-1.058,6.914-1.634,11.731-1.731v-1.444h4.763v1.472c5.459,0.155,10.622,0.876,15.487,2.166
		l-4.842,2.655c-3.278-0.904-6.823-1.462-10.646-1.675v5.426h0.224c5.708,0.52,9.901,1.223,12.579,2.107
		c2.684,0.885,4.023,2.171,4.023,3.853c0,1.684-1.54,3.056-4.618,4.113c-3.078,1.059-7.144,1.636-12.209,1.732v2.078
		L158.886,375.502L158.886,375.502z M153.632,356.872c-1.267,0.432-1.897,0.971-1.897,1.616c0,0.645,0.497,1.154,1.491,1.529
		c0.987,0.376,2.878,0.736,5.659,1.083v-4.994C156.65,356.183,154.899,356.439,153.632,356.872z M169.308,369.527
		c1.388-0.442,2.084-1,2.084-1.674c0-0.673-0.546-1.207-1.636-1.602c-1.097-0.395-3.132-0.765-6.108-1.111v5.195
		C166.03,370.241,167.915,369.97,169.308,369.527z"/>
</g>
<path style="fill:#F6C358;" d="M211.711,359.763c0,11.886-22.918,21.522-51.189,21.522s-51.189-9.635-51.189-21.522v-17.606h102.378
	v17.606H211.711z"/>
<ellipse style="fill:#FCD462;" cx="160.531" cy="342.135" rx="51.188" ry="21.547"/>
<g>
	<path style="fill:#DC8744;" d="M160.522,324.838c-24.673,0-44.675,7.753-44.675,17.319c0,9.565,20.002,17.319,44.675,17.319
		s44.675-7.754,44.675-17.319C205.197,332.592,185.196,324.838,160.522,324.838z M160.522,357.55
		c-21.931,0-39.711-6.892-39.711-15.394s17.779-15.394,39.711-15.394s39.71,6.892,39.71,15.394S182.453,357.55,160.522,357.55z"/>
	<path style="fill:#DC8744;" d="M158.886,354.12v-2.107c-6.804-0.269-12.912-1.318-18.318-3.145l5.435-2.511
		c4.169,1.404,8.458,2.241,12.882,2.511v-5.6c-5.611-0.519-9.719-1.203-12.325-2.049c-2.605-0.847-3.908-2.102-3.908-3.767
		s1.497-3.025,4.502-4.084c3.005-1.058,6.914-1.634,11.731-1.731v-1.444h4.763v1.472c5.459,0.155,10.622,0.876,15.487,2.166
		l-4.842,2.655c-3.278-0.904-6.823-1.462-10.646-1.675v5.426h0.224c5.708,0.52,9.901,1.223,12.579,2.107
		c2.684,0.885,4.023,2.171,4.023,3.853c0,1.684-1.54,3.056-4.618,4.112c-3.078,1.059-7.144,1.636-12.209,1.732v2.077h-4.761V354.12z
		 M153.632,335.49c-1.267,0.432-1.897,0.971-1.897,1.616c0,0.645,0.497,1.154,1.491,1.529c0.987,0.376,2.878,0.736,5.659,1.083
		v-4.994C156.65,334.801,154.899,335.056,153.632,335.49z M169.308,348.145c1.388-0.442,2.084-0.999,2.084-1.674
		c0-0.673-0.546-1.207-1.636-1.602c-1.097-0.395-3.132-0.765-6.108-1.111v5.195C166.03,348.858,167.915,348.588,169.308,348.145z"/>
</g>
<path style="fill:#F6C358;" d="M211.711,338.38c0,11.886-22.918,21.522-51.189,21.522s-51.189-9.635-51.189-21.522v-17.606h102.378
	v17.606H211.711z"/>
<ellipse style="fill:#FCD462;" cx="160.531" cy="320.802" rx="51.188" ry="21.547"/>
<g>
	<path style="fill:#DC8744;" d="M160.522,303.455c-24.673,0-44.675,7.753-44.675,17.319c0,9.565,20.002,17.319,44.675,17.319
		s44.675-7.754,44.675-17.319C205.197,311.209,185.196,303.455,160.522,303.455z M160.522,336.168
		c-21.931,0-39.711-6.892-39.711-15.394c0-8.502,17.779-15.394,39.711-15.394s39.71,6.892,39.71,15.394
		C200.233,329.276,182.453,336.168,160.522,336.168z"/>
	<path style="fill:#DC8744;" d="M158.886,332.738v-2.107c-6.804-0.269-12.912-1.318-18.318-3.145l5.435-2.511
		c4.169,1.404,8.458,2.241,12.882,2.511v-5.6c-5.611-0.519-9.719-1.203-12.325-2.049c-2.605-0.847-3.908-2.102-3.908-3.767
		s1.497-3.025,4.502-4.084c3.005-1.058,6.914-1.634,11.731-1.731v-1.444h4.763v1.472c5.459,0.155,10.622,0.876,15.487,2.166
		l-4.842,2.655c-3.278-0.904-6.823-1.462-10.646-1.675v5.426h0.224c5.708,0.52,9.901,1.223,12.579,2.107
		c2.684,0.885,4.023,2.171,4.023,3.853c0,1.684-1.54,3.056-4.618,4.112c-3.078,1.059-7.144,1.636-12.209,1.732v2.078
		L158.886,332.738L158.886,332.738z M153.632,314.107c-1.267,0.432-1.897,0.971-1.897,1.616s0.497,1.154,1.491,1.529
		c0.987,0.376,2.878,0.736,5.659,1.083v-4.994C156.65,313.419,154.899,313.674,153.632,314.107z M169.308,326.763
		c1.388-0.442,2.084-0.999,2.084-1.674c0-0.673-0.546-1.207-1.636-1.602c-1.097-0.395-3.132-0.765-6.108-1.111v5.195
		C166.03,327.476,167.915,327.205,169.308,326.763z"/>
</g>
<path style="fill:#F6C358;" d="M211.711,316.998c0,11.886-22.918,21.522-51.189,21.522s-51.189-9.635-51.189-21.522v-17.606h102.378
	v17.606H211.711z"/>
<ellipse style="fill:#FCD462;" cx="160.531" cy="299.417" rx="51.188" ry="21.547"/>
<g>
	<path style="fill:#DC8744;" d="M160.522,282.073c-24.673,0-44.675,7.753-44.675,17.319c0,9.565,20.002,17.319,44.675,17.319
		s44.675-7.754,44.675-17.319C205.197,289.827,185.196,282.073,160.522,282.073z M160.522,314.785
		c-21.931,0-39.711-6.892-39.711-15.394c0-8.502,17.779-15.394,39.711-15.394s39.71,6.892,39.71,15.394
		C200.233,307.894,182.453,314.785,160.522,314.785z"/>
	<path style="fill:#DC8744;" d="M158.886,311.355v-2.107c-6.804-0.269-12.912-1.318-18.318-3.145l5.435-2.511
		c4.169,1.404,8.458,2.241,12.882,2.511v-5.6c-5.611-0.519-9.719-1.203-12.325-2.049c-2.605-0.847-3.908-2.102-3.908-3.767
		c0-1.665,1.497-3.025,4.502-4.084c3.005-1.058,6.914-1.634,11.731-1.731v-1.444h4.763v1.472c5.459,0.155,10.622,0.876,15.487,2.166
		l-4.842,2.655c-3.278-0.904-6.823-1.462-10.646-1.675v5.426h0.224c5.708,0.52,9.901,1.223,12.579,2.107
		c2.684,0.885,4.023,2.171,4.023,3.853c0,1.684-1.54,3.056-4.618,4.112c-3.078,1.059-7.144,1.636-12.209,1.732v2.077h-4.761V311.355
		z M153.632,292.725c-1.267,0.432-1.897,0.971-1.897,1.616s0.497,1.154,1.491,1.529c0.987,0.376,2.878,0.736,5.659,1.083v-4.994
		C156.65,292.036,154.899,292.292,153.632,292.725z M169.308,305.38c1.388-0.442,2.084-0.999,2.084-1.674
		c0-0.673-0.546-1.207-1.636-1.602c-1.097-0.395-3.132-0.765-6.108-1.111v5.195C166.03,306.094,167.915,305.823,169.308,305.38z"/>
</g>
<path style="fill:#F6C358;" d="M319.66,381.145c0,11.886-22.918,21.522-51.189,21.522s-51.189-9.635-51.189-21.522v-17.606h102.378
	v17.606H319.66z"/>
<ellipse style="fill:#FCD462;" cx="268.479" cy="363.521" rx="51.188" ry="21.547"/>
<g>
	<path style="fill:#DC8744;" d="M268.471,346.22c-24.673,0-44.675,7.753-44.675,17.319c0,9.565,20.002,17.319,44.675,17.319
		s44.675-7.754,44.675-17.319C313.146,353.974,293.145,346.22,268.471,346.22z M268.471,378.932
		c-21.931,0-39.711-6.892-39.711-15.394s17.779-15.394,39.711-15.394s39.71,6.892,39.71,15.394
		C308.182,372.041,290.402,378.932,268.471,378.932z"/>
	<path style="fill:#DC8744;" d="M266.835,375.502v-2.107c-6.804-0.269-12.912-1.318-18.318-3.145l5.435-2.511
		c4.169,1.404,8.458,2.241,12.882,2.511v-5.6c-5.611-0.519-9.719-1.203-12.325-2.049c-2.605-0.847-3.908-2.102-3.908-3.767
		s1.497-3.025,4.502-4.084c3.005-1.058,6.914-1.634,11.731-1.731v-1.444h4.762v1.472c5.459,0.155,10.622,0.876,15.488,2.166
		l-4.842,2.655c-3.278-0.904-6.823-1.462-10.646-1.675v5.426h0.224c5.708,0.52,9.901,1.223,12.579,2.107
		c2.684,0.885,4.023,2.171,4.023,3.853c0,1.684-1.54,3.056-4.618,4.113c-3.078,1.059-7.144,1.636-12.209,1.732v2.078
		L266.835,375.502L266.835,375.502z M261.581,356.872c-1.267,0.432-1.897,0.971-1.897,1.616c0,0.645,0.497,1.154,1.491,1.529
		c0.987,0.376,2.878,0.736,5.659,1.083v-4.994C264.599,356.183,262.848,356.439,261.581,356.872z M277.257,369.527
		c1.388-0.442,2.084-1,2.084-1.674c0-0.673-0.546-1.207-1.636-1.602c-1.097-0.395-3.132-0.765-6.107-1.111v5.195
		C273.979,370.241,275.864,369.97,277.257,369.527z"/>
</g>
<path style="fill:#F6C358;" d="M319.66,359.763c0,11.886-22.918,21.522-51.189,21.522s-51.189-9.635-51.189-21.522v-17.606h102.378
	v17.606H319.66z"/>
<ellipse style="fill:#FCD462;" cx="268.479" cy="342.135" rx="51.188" ry="21.547"/>
<g>
	<path style="fill:#DC8744;" d="M268.471,324.838c-24.673,0-44.675,7.753-44.675,17.319c0,9.565,20.002,17.319,44.675,17.319
		s44.675-7.754,44.675-17.319C313.146,332.592,293.145,324.838,268.471,324.838z M268.471,357.55
		c-21.931,0-39.711-6.892-39.711-15.394s17.779-15.394,39.711-15.394s39.71,6.892,39.71,15.394S290.402,357.55,268.471,357.55z"/>
	<path style="fill:#DC8744;" d="M266.835,354.12v-2.107c-6.804-0.269-12.912-1.318-18.318-3.145l5.435-2.511
		c4.169,1.404,8.458,2.241,12.882,2.511v-5.6c-5.611-0.519-9.719-1.203-12.325-2.049c-2.605-0.847-3.908-2.102-3.908-3.767
		s1.497-3.025,4.502-4.084c3.005-1.058,6.914-1.634,11.731-1.731v-1.444h4.762v1.472c5.459,0.155,10.622,0.876,15.488,2.166
		l-4.842,2.655c-3.278-0.904-6.823-1.462-10.646-1.675v5.426h0.224c5.708,0.52,9.901,1.223,12.579,2.107
		c2.684,0.885,4.023,2.171,4.023,3.853c0,1.684-1.54,3.056-4.618,4.112c-3.078,1.059-7.144,1.636-12.209,1.732v2.077h-4.761V354.12z
		 M261.581,335.49c-1.267,0.432-1.897,0.971-1.897,1.616c0,0.645,0.497,1.154,1.491,1.529c0.987,0.376,2.878,0.736,5.659,1.083
		v-4.994C264.599,334.801,262.848,335.056,261.581,335.49z M277.257,348.145c1.388-0.442,2.084-0.999,2.084-1.674
		c0-0.673-0.546-1.207-1.636-1.602c-1.097-0.395-3.132-0.765-6.107-1.111v5.195C273.979,348.858,275.864,348.588,277.257,348.145z"
		/>
</g>
<g>
</g>
<g>
</g>
<g>
</g>
<g>
</g>
<g>
</g>
<g>
</g>
<g>
</g>
<g>
</g>
<g>
</g>
<g>
</g>
<g>
</g>
<g>
</g>
<g>
</g>
<g>
</g>
<g>
</g>
</svg>
